<svg width="24px" height="24px" viewBox="0 0 24 24" xmlns="http://www.w3.org/2000/svg" >
<g>
	<path transform="scale(0.4)" d="M27.209,0.023c-0.46-0.102-0.928,0.138-1.122,0.568l-26,58c-0.139,0.31-0.111,0.668,0.073,0.953
		c0.184,0.284,0.5,0.456,0.839,0.456h26c0.552,0,1-0.447,1-1v-58C28,0.529,27.671,0.122,27.209,0.023z"/>
	<path  transform="scale(0.4)" d="M59.913,58.592l-26-58c-0.192-0.431-0.66-0.67-1.122-0.568C32.33,0.122,32,0.529,32,1.001v58c0,0.553,0.448,1,1,1h26
		c0.339,0,0.655-0.172,0.839-0.456C60.024,59.26,60.052,58.901,59.913,58.592z"/>
</g>
</svg>
